<svg width="10" height="10" viewBox="0 0 143 112" fill="none" xmlns="http://www.w3.org/2000/svg">
<path fill-rule="evenodd" clip-rule="evenodd" d="M-88.9314 -21.7017C-109.222 -14.9359 -115.611 13.6993 -116.183 35.4336C-116.685 54.4907 -99.3195 68.0545 -91.7557 85.546C-85.6981 99.5545 -85.6483 115.435 -76.372 127.499C-65.0713 142.196 -51.6729 156.507 -33.8548 160.848C-14.2062 165.635 8.51662 164.484 24.5175 152.078C40.2395 139.888 38.4203 115.93 47.2734 97.9462C57.7607 76.6426 82.5529 61.1086 81.0331 37.2731C79.4736 12.8144 62.9058 -14.3598 39.6855 -21.0594C15.8117 -27.9476 -2.87394 6.03798 -27.6538 5.91424C-50.5091 5.8001 -67.2514 -28.9307 -88.9314 -21.7017Z" fill="#5E2BF0"/>
<path opacity="0.24" fill-rule="evenodd" clip-rule="evenodd" d="M-68.5459 -21.8174C-88.6717 -15.1067 -95.0083 13.2953 -95.576 34.8527C-96.0738 53.7546 -78.8495 67.208 -71.3473 84.5571C-65.339 98.4515 -65.2896 114.202 -56.0888 126.168C-44.8801 140.746 -31.5908 154.94 -13.9178 159.246C5.57088 163.994 28.1086 162.852 43.9792 150.547C59.5733 138.456 57.7689 114.694 66.5499 96.8563C76.9518 75.7262 101.542 60.3187 100.035 36.6772C98.4879 12.4177 82.0551 -14.5353 59.0238 -21.1804C35.3444 -28.0125 16.8108 5.69642 -7.76726 5.57368C-30.4365 5.46048 -47.0425 -28.9876 -68.5459 -21.8174Z" fill="#5E2BF0"/>
</svg>
