<?xml version="1.0" encoding="UTF-8"?>
<svg id="Layer_2" data-name="Layer 2" xmlns="http://www.w3.org/2000/svg" viewBox="0 0 78.58 60.56">
  <defs>
    <style>
      .cls-1 {
        fill: #fff;
      }

      .cls-2 {
        fill: #dfa41c;
      }
    </style>
  </defs>
  <g id="Layer_1-2" data-name="Layer 1">
    <g>
      <g>
        <path class="cls-1" d="M26.56,56.99s-.07.09-.1.16c-.05.12-.14.26-.26.41-.17.24-.4.41-.67.51-.27.09-.56.1-.85.01s-.53-.25-.7-.49c-.17-.24-.26-.51-.26-.8v-15.05h1.87v-2.2h-4.27v17.25c0,.52.1,1.01.3,1.48.2.46.47.87.82,1.2.34.33.74.6,1.2.8.46.2.95.3,1.46.3.61,0,1.18-.14,1.74-.43.55-.28,1.01-.69,1.37-1.23.07-.09.12-.16.17-.23.04-.07.08-.13.12-.18.03-.07.07-.12.1-.16l-2.02-1.35Z"/>
        <path class="cls-1" d="M30.76,39.56h2.41v16.08h-2.41v-9.97l-1.97,1.94v8.03h-2.43v-16.08h2.43v5.23l1.97-1.94v-3.29Z"/>
        <path class="cls-1" d="M37.91,39.27c.43,0,.84.08,1.22.25.38.16.71.39,1,.67.28.29.51.62.67,1.01.16.39.25.8.25,1.23v10.36c0,.43-.08.84-.25,1.23-.16.39-.39.73-.67,1.01-.28.28-.62.51-1,.67-.38.16-.79.25-1.22.25h-.54c-.43,0-.84-.09-1.22-.26-.38-.17-.71-.4-1-.69-.28-.29-.51-.62-.67-1-.16-.38-.25-.79-.25-1.22v-10.36c0-.43.08-.84.25-1.22.16-.38.39-.71.67-1s.62-.51,1-.69c.38-.17.79-.26,1.22-.26h.54ZM38.64,42.17c0-.17-.07-.35-.21-.52-.17-.14-.35-.21-.52-.21h-.54c-.19,0-.36.07-.51.22-.15.15-.22.32-.22.51v10.88c0,.19.07.36.22.51.15.15.31.22.51.22h.54c.17,0,.35-.07.52-.21.14-.17.21-.35.21-.52v-10.88Z"/>
        <path class="cls-1" d="M46.48,53.05v-13.49h2.41v13.24c0,.43-.08.84-.25,1.23-.16.39-.38.72-.66,1-.28.28-.6.5-.98.66-.38.16-.79.25-1.24.25h-.54c-.43,0-.84-.08-1.22-.25-.38-.16-.71-.39-1-.67-.28-.29-.51-.62-.67-1-.16-.38-.25-.79-.25-1.22v-13.24h2.41v13.49c0,.19.08.35.23.49.14.16.3.23.49.23h.54c.19,0,.36-.07.51-.22.15-.15.22-.31.22-.51Z"/>
        <path class="cls-1" d="M53.58,39.27c.45,0,.86.08,1.24.25.38.16.71.39.98.67.28.29.5.62.66,1.01.16.39.25.8.25,1.23v1.61h-2.41v-1.86c0-.17-.07-.35-.21-.52-.14-.14-.31-.21-.52-.21h-.52c-.21,0-.38.07-.52.21-.14.17-.21.35-.21.52v10.88c0,.17.07.35.21.52.14.14.31.21.52.21h.52c.21,0,.38-.07.52-.21.14-.17.21-.35.21-.52v-5.36h-.88v-2.15h3.29v7.25c0,.43-.08.84-.25,1.23-.16.39-.38.73-.66,1.01-.28.28-.6.51-.98.67-.38.16-.79.25-1.24.25h-.52c-.43,0-.84-.08-1.23-.25-.39-.16-.72-.39-1-.67-.28-.29-.5-.62-.66-1.01-.16-.39-.25-.8-.25-1.23v-10.36c0-.43.08-.84.25-1.23.16-.39.38-.73.66-1.01.28-.28.61-.51,1-.67.39-.16.8-.25,1.23-.25h.52Z"/>
        <path class="cls-1" d="M62.15,39.56h2.41v16.08h-2.41v-9.97l-1.97,1.94v8.03h-2.43v-16.08h2.43v5.23l1.97-1.94v-3.29Z"/>
        <path class="cls-1" d="M69.64,41.73v13.91h-2.41v-13.91h-1.86v-2.18h6.14v2.18h-1.86Z"/>
        <path class="cls-1" d="M75.44,39.27c.43,0,.84.08,1.22.25.38.16.71.39,1,.67.28.29.51.62.67,1,.16.38.25.79.25,1.22v2.07h-2.41v-2.31c0-.19-.07-.36-.22-.51-.15-.15-.32-.22-.51-.22h-.52c-.21,0-.38.07-.52.21-.14.14-.21.31-.21.52v1.14c0,.45.07.77.21.96.09.1.19.19.3.25.11.06.24.12.38.17.19.07.38.13.58.18.2.05.39.12.58.21.79.29,1.38.71,1.76,1.26.38.54.57,1.25.57,2.11v4.35c0,.43-.08.84-.25,1.23-.16.39-.38.72-.66,1-.28.28-.6.5-.98.66-.38.16-.79.25-1.24.25h-.52c-.43,0-.84-.08-1.23-.25-.39-.16-.73-.39-1.01-.67-.28-.29-.51-.62-.67-1-.16-.38-.25-.79-.25-1.22v-4.9h2.43v5.15c0,.19.07.36.21.51.14.15.31.22.52.22h.52c.19,0,.36-.07.51-.22.15-.15.22-.31.22-.51v-4.61c0-.35-.06-.6-.18-.76-.12-.16-.35-.29-.7-.38-.19-.09-.39-.16-.61-.22-.22-.06-.42-.13-.61-.22-.79-.29-1.38-.75-1.75-1.37-.37-.62-.56-1.35-.56-2.18v-.91c0-.43.09-.84.26-1.22.17-.38.4-.71.69-1,.28-.28.62-.51,1-.67.38-.16.79-.25,1.22-.25h.52Z"/>
      </g>
      <path class="cls-2" d="M24.28,4.59V0h-10.5v36.41c0,.62-.18,1.19-.55,1.69-.36.51-.86.86-1.48,1.04-.62.18-1.22.17-1.8-.03-.58-.2-1.05-.55-1.42-1.06-.11-.18-.21-.35-.3-.49-.09-.15-.17-.28-.25-.38l-.22-.33-4.21,2.84c.88,1.38,1.87,2.51,2.98,3.39,1.11.88,2.56,1.31,4.35,1.31,1.09,0,2.12-.21,3.09-.63.97-.42,1.81-.98,2.54-1.69.73-.71,1.3-1.56,1.72-2.55.42-.98.63-2.02.63-3.12V15.42h4.48v-4.59h-4.48v-6.23h5.41Z"/>
      <path class="cls-2" d="M12.8,0v5.09h-1.86c-.84,0-1.64.18-2.41.55-.76.36-1.44.85-2.02,1.47-1.13,1.31-1.59,2.86-1.37,4.65.18,1.13.69,2.08,1.53,2.84.84.77,1.84,1.15,3.01,1.15h1.15v5.08h-1.15c-1.2,0-2.35-.21-3.45-.63-1.09-.42-2.06-1-2.9-1.75-.84-.75-1.54-1.63-2.11-2.65-.57-1.02-.94-2.13-1.12-3.33C-.11,10.87,0,9.31.44,7.79c.44-1.51,1.18-2.85,2.24-4.02,1.06-1.2,2.3-2.13,3.72-2.79,1.42-.66,2.93-.99,4.54-.99h1.86Z"/>
      <path class="cls-2" d="M52.51,19.76c0,1.31-.25,2.47-.74,3.47-.49,1-1.21,1.98-2.16,2.93-.15.15-.26.24-.33.27.98.73,1.77,1.62,2.35,2.68.58,1.06.87,2.21.87,3.44v4.23h-5.14v-5.05c0-.66-.22-1.2-.66-1.64-.44-.44-.98-.66-1.64-.66h-1.86v7.34h-5.08V6.26h7.71c.91,0,1.78.17,2.6.52.82.35,1.53.82,2.13,1.42.6.6,1.07,1.31,1.42,2.13.35.82.52,1.69.52,2.6v6.83ZM47.37,12.38c0-.4-.15-.76-.44-1.07-.29-.31-.66-.46-1.09-.46h-2.62v13.94c1.2-.18,2.2-.7,2.98-1.56.78-.86,1.18-1.92,1.18-3.2v-7.65Z"/>
      <path class="cls-2" d="M71.96,6.31c.95,0,1.82.17,2.62.52.8.35,1.49.81,2.08,1.39.58.58,1.05,1.28,1.39,2.08.35.8.52,1.68.52,2.62v23.86h-5.08V12.38c0-.4-.15-.75-.44-1.04-.26-.33-.62-.49-1.09-.49h-1.09c-.44,0-.8.16-1.09.49-.29.29-.44.64-.44,1.04v24.4h-5.08V12.38c0-.44-.16-.78-.49-1.04-.26-.33-.6-.49-1.04-.49h-2.68v25.93h-5.08V6.31h7.76c1.49,0,2.84.46,4.05,1.37,1.2-.91,2.57-1.37,4.1-1.37h1.09Z"/>
      <path class="cls-2" d="M35.17,9.81c-.35-.8-.82-1.5-1.42-2.11-.6-.6-1.3-1.08-2.1-1.45-.8-.36-1.66-.55-2.57-.55h-1.15c-.91,0-1.77.17-2.57.52-.8.35-1.5.82-2.1,1.42-.6.6-1.08,1.31-1.42,2.13-.35.82-.52,1.69-.52,2.6v24.4h5.08v-13.62c2.64,1.92,4.21,4.99,4.21,8.25v5.37h5.08V12.38c0-.91-.17-1.77-.52-2.57ZM32.89,10.42c-1.32,1.16-1.86,2.65-1.86,4.38,0,1.74-.02.64-.08,2.37-.07,2.05-1.36,3.72-3.29,4.27-.39.11-.8.12-1.27.19v-.73c0-2.61,0-2.39,0-5.01,0-.57.03-1.15.12-1.71.31-1.83,1.17-3.25,3.02-3.89,1.12-.38,2.25-.32,3.46-.06-.05.09-.07.15-.11.18Z"/>
    </g>
  </g>
</svg>