<svg width="168" height="112" viewBox="0 0 168 112" fill="none" xmlns="http://www.w3.org/2000/svg">
<path fill-rule="evenodd" clip-rule="evenodd" d="M-63.3858 -27.7472C-83.6767 -20.9814 -90.0653 7.6538 -90.6377 29.3882C-91.1396 48.4452 -73.7739 62.009 -66.2101 79.5005C-60.1525 93.509 -60.1027 109.389 -50.8264 121.453C-39.5257 136.15 -26.1273 150.462 -8.30923 154.802C11.3395 159.589 34.0622 158.438 50.0631 146.032C65.7851 133.842 63.966 109.885 72.819 91.9007C83.3063 70.5971 108.098 55.0632 106.579 31.2276C105.019 6.76894 88.4514 -20.4053 65.2311 -27.1049C41.3574 -33.9931 22.6717 -0.00748618 -2.10818 -0.131231C-24.9635 -0.245366 -41.7058 -34.9762 -63.3858 -27.7472Z" fill="#F05E2B"/>
<path opacity="0.24" fill-rule="evenodd" clip-rule="evenodd" d="M-43.0004 -27.863C-63.1261 -21.1522 -69.4628 7.2498 -70.0305 28.8072C-70.5282 47.7091 -53.304 61.1625 -45.8017 78.5116C-39.7934 92.406 -39.7441 108.157 -30.5433 120.123C-19.3346 134.7 -6.04532 148.895 11.6277 153.2C31.1164 157.948 53.6542 156.807 69.5248 144.502C85.1188 132.411 83.3145 108.648 92.0955 90.8108C102.497 69.6807 127.088 54.2732 125.58 30.6317C124.033 6.37214 107.601 -20.5808 84.5694 -27.2259C60.8899 -34.058 42.3564 -0.349108 17.7783 -0.471845C-4.89101 -0.58505 -21.4969 -35.0331 -43.0004 -27.863Z" fill="#F05E2B"/>
<path opacity="0.24" fill-rule="evenodd" clip-rule="evenodd" d="M-43.0004 -27.8628C-63.1261 -21.1521 -69.4627 7.24992 -70.0304 28.8073C-70.5282 47.7092 -53.3039 61.1626 -45.8017 78.5117C-39.7934 92.4061 -39.7441 108.157 -30.5433 120.123C-19.3345 134.7 -6.04529 148.895 11.6277 153.2C31.1164 157.948 53.6542 156.807 69.5248 144.502C85.1189 132.411 83.3145 108.649 92.0955 90.811C102.497 69.6808 127.088 54.2733 125.58 30.6318C124.033 6.37226 107.601 -20.5807 84.5694 -27.2258C60.89 -34.0579 42.3564 -0.348986 17.7783 -0.471723C-4.89097 -0.584928 -21.4969 -35.033 -43.0004 -27.8628Z" fill="#F05E2B"/>
</svg>
