<svg width="96" height="40" viewBox="0 0 96 40" fill="none" xmlns="http://www.w3.org/2000/svg">
<path d="M18.7598 7.144C18.7598 7.568 18.6598 7.968 18.4598 8.344C18.2598 8.72 17.9398 9.028 17.4998 9.268C17.0598 9.5 16.4958 9.616 15.8078 9.616H14.2958V13H12.9278V4.66H15.8078C16.4478 4.66 16.9878 4.772 17.4278 4.996C17.8758 5.212 18.2078 5.508 18.4238 5.884C18.6478 6.26 18.7598 6.68 18.7598 7.144ZM15.8078 8.5C16.3278 8.5 16.7158 8.384 16.9718 8.152C17.2278 7.912 17.3558 7.576 17.3558 7.144C17.3558 6.232 16.8398 5.776 15.8078 5.776H14.2958V8.5H15.8078ZM22.9325 13.108C22.3085 13.108 21.7445 12.968 21.2405 12.688C20.7365 12.4 20.3405 12 20.0525 11.488C19.7645 10.968 19.6205 10.368 19.6205 9.688C19.6205 9.016 19.7685 8.42 20.0645 7.9C20.3605 7.38 20.7645 6.98 21.2765 6.7C21.7885 6.42 22.3605 6.28 22.9925 6.28C23.6245 6.28 24.1965 6.42 24.7085 6.7C25.2205 6.98 25.6245 7.38 25.9205 7.9C26.2165 8.42 26.3645 9.016 26.3645 9.688C26.3645 10.36 26.2125 10.956 25.9085 11.476C25.6045 11.996 25.1885 12.4 24.6605 12.688C24.1405 12.968 23.5645 13.108 22.9325 13.108ZM22.9325 11.92C23.2845 11.92 23.6125 11.836 23.9165 11.668C24.2285 11.5 24.4805 11.248 24.6725 10.912C24.8645 10.576 24.9605 10.168 24.9605 9.688C24.9605 9.208 24.8685 8.804 24.6845 8.476C24.5005 8.14 24.2565 7.888 23.9525 7.72C23.6485 7.552 23.3205 7.468 22.9685 7.468C22.6165 7.468 22.2885 7.552 21.9845 7.72C21.6885 7.888 21.4525 8.14 21.2765 8.476C21.1005 8.804 21.0125 9.208 21.0125 9.688C21.0125 10.4 21.1925 10.952 21.5525 11.344C21.9205 11.728 22.3805 11.92 22.9325 11.92ZM36.5968 6.388L34.5448 13H33.1048L31.7728 8.116L30.4408 13H29.0008L26.9368 6.388H28.3288L29.7088 11.704L31.1128 6.388H32.5408L33.8848 11.68L35.2528 6.388H36.5968ZM43.6792 9.532C43.6792 9.78 43.6632 10.004 43.6312 10.204H38.5792C38.6192 10.732 38.8152 11.156 39.1672 11.476C39.5192 11.796 39.9512 11.956 40.4632 11.956C41.1992 11.956 41.7192 11.648 42.0232 11.032H43.4992C43.2992 11.64 42.9352 12.14 42.4072 12.532C41.8872 12.916 41.2392 13.108 40.4632 13.108C39.8312 13.108 39.2632 12.968 38.7592 12.688C38.2632 12.4 37.8712 12 37.5832 11.488C37.3032 10.968 37.1632 10.368 37.1632 9.688C37.1632 9.008 37.2992 8.412 37.5712 7.9C37.8512 7.38 38.2392 6.98 38.7352 6.7C39.2392 6.42 39.8152 6.28 40.4632 6.28C41.0872 6.28 41.6432 6.416 42.1312 6.688C42.6192 6.96 42.9992 7.344 43.2712 7.84C43.5432 8.328 43.6792 8.892 43.6792 9.532ZM42.2512 9.1C42.2432 8.596 42.0632 8.192 41.7112 7.888C41.3592 7.584 40.9232 7.432 40.4032 7.432C39.9312 7.432 39.5272 7.584 39.1912 7.888C38.8552 8.184 38.6552 8.588 38.5912 9.1H42.2512ZM46.3934 7.348C46.5934 7.012 46.8574 6.752 47.1854 6.568C47.5214 6.376 47.9174 6.28 48.3734 6.28V7.696H48.0254C47.4894 7.696 47.0814 7.832 46.8014 8.104C46.5294 8.376 46.3934 8.848 46.3934 9.52V13H45.0254V6.388H46.3934V7.348ZM55.6909 9.532C55.6909 9.78 55.6749 10.004 55.6429 10.204H50.5909C50.6309 10.732 50.8269 11.156 51.1789 11.476C51.5309 11.796 51.9629 11.956 52.4749 11.956C53.2109 11.956 53.7309 11.648 54.0349 11.032H55.5109C55.3109 11.64 54.9469 12.14 54.4189 12.532C53.8989 12.916 53.2509 13.108 52.4749 13.108C51.8429 13.108 51.2749 12.968 50.7709 12.688C50.2749 12.4 49.8829 12 49.5949 11.488C49.3149 10.968 49.1749 10.368 49.1749 9.688C49.1749 9.008 49.3109 8.412 49.5829 7.9C49.8629 7.38 50.2509 6.98 50.7469 6.7C51.2509 6.42 51.8269 6.28 52.4749 6.28C53.0989 6.28 53.6549 6.416 54.1429 6.688C54.6309 6.96 55.0109 7.344 55.2829 7.84C55.5549 8.328 55.6909 8.892 55.6909 9.532ZM54.2629 9.1C54.2549 8.596 54.0749 8.192 53.7229 7.888C53.3709 7.584 52.9349 7.432 52.4149 7.432C51.9429 7.432 51.5389 7.584 51.2029 7.888C50.8669 8.184 50.6669 8.588 50.6029 9.1H54.2629ZM56.5811 9.664C56.5811 9 56.7171 8.412 56.9891 7.9C57.2691 7.388 57.6451 6.992 58.1171 6.712C58.5971 6.424 59.1291 6.28 59.7131 6.28C60.1451 6.28 60.5691 6.376 60.9851 6.568C61.4091 6.752 61.7451 7 61.9931 7.312V4.12H63.3731V13H61.9931V12.004C61.7691 12.324 61.4571 12.588 61.0571 12.796C60.6651 13.004 60.2131 13.108 59.7011 13.108C59.1251 13.108 58.5971 12.964 58.1171 12.676C57.6451 12.38 57.2691 11.972 56.9891 11.452C56.7171 10.924 56.5811 10.328 56.5811 9.664ZM61.9931 9.688C61.9931 9.232 61.8971 8.836 61.7051 8.5C61.5211 8.164 61.2771 7.908 60.9731 7.732C60.6691 7.556 60.3411 7.468 59.9891 7.468C59.6371 7.468 59.3091 7.556 59.0051 7.732C58.7011 7.9 58.4531 8.152 58.2611 8.488C58.0771 8.816 57.9851 9.208 57.9851 9.664C57.9851 10.12 58.0771 10.52 58.2611 10.864C58.4531 11.208 58.7011 11.472 59.0051 11.656C59.3171 11.832 59.6451 11.92 59.9891 11.92C60.3411 11.92 60.6691 11.832 60.9731 11.656C61.2771 11.48 61.5211 11.224 61.7051 10.888C61.8971 10.544 61.9931 10.144 61.9931 9.688ZM69.6551 7.372C69.8871 7.052 70.2031 6.792 70.6031 6.592C71.0111 6.384 71.4631 6.28 71.9591 6.28C72.5431 6.28 73.0711 6.42 73.5431 6.7C74.0151 6.98 74.3871 7.38 74.6591 7.9C74.9311 8.412 75.0671 9 75.0671 9.664C75.0671 10.328 74.9311 10.924 74.6591 11.452C74.3871 11.972 74.0111 12.38 73.5311 12.676C73.0591 12.964 72.5351 13.108 71.9591 13.108C71.4471 13.108 70.9911 13.008 70.5911 12.808C70.1991 12.608 69.8871 12.352 69.6551 12.04V13H68.2871V4.12H69.6551V7.372ZM73.6751 9.664C73.6751 9.208 73.5791 8.816 73.3871 8.488C73.2031 8.152 72.9551 7.9 72.6431 7.732C72.3391 7.556 72.0111 7.468 71.6591 7.468C71.3151 7.468 70.9871 7.556 70.6751 7.732C70.3711 7.908 70.1231 8.164 69.9311 8.5C69.7471 8.836 69.6551 9.232 69.6551 9.688C69.6551 10.144 69.7471 10.544 69.9311 10.888C70.1231 11.224 70.3711 11.48 70.6751 11.656C70.9871 11.832 71.3151 11.92 71.6591 11.92C72.0111 11.92 72.3391 11.832 72.6431 11.656C72.9551 11.472 73.2031 11.208 73.3871 10.864C73.5791 10.52 73.6751 10.12 73.6751 9.664ZM82.372 6.388L78.316 16.108H76.9L78.244 12.892L75.64 6.388H77.164L79.024 11.428L80.956 6.388H82.372Z" fill="white"/>
<g clip-path="url(#clip0_119_1123)">
<path d="M36.9236 21.2688C38.4121 23.9319 40.4913 25.7068 43.5607 25.6563C46.6134 25.6059 48.6751 23.8244 50.0865 21.0819C49.6337 23.5639 48.6261 25.5447 46.473 26.8365C44.697 27.9026 44.3133 28.9505 44.82 30.9801C45.5775 34.0171 45.1905 36.9118 43.6986 39.6617C43.6421 39.7659 43.5623 39.8586 43.4626 40C42.6386 38.7817 42.1219 37.4857 41.8412 36.0979C41.489 34.3562 41.6011 32.6342 42.1253 30.9363C42.7051 29.0572 42.3454 27.9547 40.6467 26.9581C38.5791 25.7448 37.4668 23.9253 36.956 21.6641C36.9335 21.5665 36.9385 21.4623 36.9236 21.268V21.2688Z" fill="white"/>
<path d="M41.9026 22.7095C41.9134 22.6268 41.9193 22.43 41.9691 22.2447C42.1635 21.5235 42.7607 21.0281 43.4444 21.0008C44.0641 20.9768 44.6497 21.4127 44.9172 22.0975C45.4156 23.3736 44.5542 24.7366 43.3098 24.639C42.4941 24.5754 41.8927 23.7988 41.9026 22.7095Z" fill="white"/>
<path d="M21.5644 30.0571H12.6221C12.0066 30.0571 11.5082 30.5533 11.5082 31.1662V32.229H20.4504C21.066 32.229 21.5644 31.7327 21.5644 31.1199V30.0571Z" fill="white"/>
<path d="M33.6482 29.9471C32.4711 29.9471 31.9553 30.8544 31.638 31.6442C31.0573 33.0891 30.3861 34.5133 29.6759 36.021C29.425 36.5536 29.1684 37.0987 28.9067 37.6627C28.6409 37.0929 28.3784 36.5387 28.1201 35.9954C27.3783 34.4306 26.6772 32.9526 26.0675 31.4424C25.6687 30.4541 25.1138 29.9942 24.323 29.9942C23.9783 29.9942 23.5812 30.0811 23.1094 30.2605L22.8843 30.3457L22.9848 30.5632C23.3287 31.3059 23.666 32.0519 24.0016 32.7955C24.9984 35.0029 26.0301 37.2847 27.2296 39.4252C27.463 39.842 28.5005 39.8875 28.9349 39.8875C29.4442 39.8875 30.3297 39.8313 30.5431 39.4525C31.7767 37.269 32.8425 34.9475 33.8733 32.702C34.2147 31.9585 34.557 31.2133 34.905 30.4723L35.0105 30.2481L34.7754 30.1663C34.351 30.0182 33.9813 29.9471 33.6457 29.9471H33.6482Z" fill="white"/>
<path d="M2.2503 37.7016V31.0388C2.2503 30.426 1.7519 29.9297 1.13637 29.9297H0V39.9785H9.53533V38.8107C9.53533 38.1978 9.03693 37.7016 8.4214 37.7016H2.2503Z" fill="white"/>
<path d="M11.5074 38.9447V40.0008H20.5576C21.1731 40.0008 21.6715 39.5046 21.6715 38.8917V37.8356H12.6213C12.0058 37.8356 11.5074 38.3318 11.5074 38.9447Z" fill="white"/>
<path d="M72.783 36.9605C71.8111 34.8681 70.8068 32.7045 69.7801 30.5963C69.4836 29.9885 68.6812 29.7709 68.0282 29.7709C67.1486 29.7709 66.4109 30.1208 66.1484 30.6625C65.1441 32.7326 64.1922 34.7779 63.1837 36.9432C62.7908 37.7876 62.3946 38.6378 61.9925 39.4963L61.8829 39.7304L62.1313 39.8048C62.5566 39.933 62.9221 39.995 63.2502 39.995C64.2055 39.995 64.8335 39.4707 65.287 38.2954C65.8485 36.8381 66.5289 35.423 67.2482 33.9244C67.4974 33.4059 67.7533 32.8732 68.01 32.3265C68.2741 32.8947 68.5341 33.4439 68.7875 33.9798C69.4985 35.4809 70.1697 36.8993 70.7396 38.3393C71.0212 39.0513 71.5312 39.9992 72.6991 39.9992C73.0314 39.9992 73.3994 39.9264 73.8247 39.7775L74.0581 39.6956L73.9535 39.4723C73.5614 38.6345 73.1726 37.7975 72.7839 36.9597L72.783 36.9605Z" fill="white"/>
<path d="M62.1952 29.9554H53.1849C52.5694 29.9554 52.0709 30.4516 52.0709 31.0644V32.2174H56.108V38.8065C56.108 39.4194 56.6064 39.9156 57.222 39.9156H58.4755V32.1892H61.0813C61.6968 32.1892 62.1952 31.693 62.1952 31.0802V29.9545V29.9554Z" fill="white"/>
<path d="M73.5581 32.205H77.4348V39.8652H78.7315C79.347 39.8652 79.8454 39.3689 79.8454 38.7561V32.1338H82.4928C83.1083 32.1338 83.6067 31.6376 83.6067 31.0247V29.9372H74.672C74.0565 29.9372 73.5581 30.4334 73.5581 31.0462V32.205Z" fill="white"/>
<path d="M85.4085 38.8272V39.8908H94.4138C95.0294 39.8908 95.5278 39.3946 95.5278 38.7817V37.7181H86.5224C85.9069 37.7181 85.4085 38.2144 85.4085 38.8272Z" fill="white"/>
<path d="M95.4671 29.9306H86.5307C85.9152 29.9306 85.4168 30.4268 85.4168 31.0397V32.0933H94.3532C94.9687 32.0933 95.4671 31.5971 95.4671 30.9842V29.9306Z" fill="white"/>
<path d="M87.1753 36.0103H92.794C93.4096 36.0103 93.908 35.514 93.908 34.9012V33.8575H88.2893C87.6737 33.8575 87.1753 34.3537 87.1753 34.9665V36.0103Z" fill="white"/>
<path d="M16.5894 33.936H14.4064C13.7909 33.936 13.2925 34.4322 13.2925 35.0451V36.0789H18.8306C19.4461 36.0789 19.9445 35.5827 19.9445 34.9698V33.936H16.5886H16.5894Z" fill="white"/>
</g>
<defs>
<clipPath id="clip0_119_1123">
<rect width="95.5278" height="19" fill="white" transform="translate(0 21)"/>
</clipPath>
</defs>
</svg>
