<svg width="29" height="29" viewBox="0 0 29 29" fill="none" xmlns="http://www.w3.org/2000/svg">
<g clip-path="url(#clip0_85_966)">
<path d="M26.4652 11.7451V25.2923C26.4652 25.6516 26.3225 25.9962 26.0684 26.2503C25.8144 26.5043 25.4698 26.6471 25.1105 26.6471H3.43492C3.07563 26.6471 2.73105 26.5043 2.47699 26.2503C2.22293 25.9962 2.0802 25.6516 2.0802 25.2923V11.7451C2.0802 11.3858 2.22293 11.0412 2.47699 10.7872C2.73105 10.5331 3.07563 10.3904 3.43492 10.3904H25.1105C25.4698 10.3904 25.8144 10.5331 26.0684 10.7872C26.3225 11.0412 26.4652 11.3858 26.4652 11.7451ZM21.3308 10.3904L23.7558 6.92227L17.1041 2.26202L11.4007 10.3904H21.3308ZM10.3305 3.61675L5.57539 10.3904H11.4007L14.2727 6.3262L10.3305 3.61675ZM26.4652 15.8093H19.6916C19.3323 15.8093 18.9877 15.952 18.7337 16.2061C18.4796 16.4601 18.3369 16.8047 18.3369 17.164V19.8734C18.3369 20.2327 18.4796 20.5773 18.7337 20.8314C18.9877 21.0854 19.3323 21.2282 19.6916 21.2282H26.4652V15.8093Z" stroke="white" stroke-width="2.70945" stroke-linecap="round" stroke-linejoin="round"/>
</g>
<defs>
<clipPath id="clip0_85_966">
<rect width="27.6364" height="27.6364" fill="white" transform="translate(0.45459 0.636353)"/>
</clipPath>
</defs>
</svg>
