<svg width="526" height="526" viewBox="0 0 526 526" fill="none" xmlns="http://www.w3.org/2000/svg">
<circle cx="263" cy="263" r="263" fill="#224C4B"/>
<path d="M397.252 243.82H282.19V128.757C282.19 123.671 280.169 118.793 276.573 115.197C272.977 111.601 268.099 109.58 263.013 109.58C257.927 109.58 253.049 111.601 249.452 115.197C245.856 118.793 243.836 123.671 243.836 128.757V243.82H128.773C123.687 243.82 118.809 245.84 115.213 249.436C111.617 253.033 109.596 257.911 109.596 262.997C109.596 268.083 111.617 272.961 115.213 276.557C118.809 280.153 123.687 282.174 128.773 282.174H243.836V397.236C243.836 402.322 245.856 407.2 249.452 410.797C253.049 414.393 257.927 416.413 263.013 416.413C268.099 416.413 272.977 414.393 276.573 410.797C280.169 407.2 282.19 402.322 282.19 397.236V282.174H397.252C402.338 282.174 407.216 280.153 410.813 276.557C414.409 272.961 416.429 268.083 416.429 262.997C416.429 257.911 414.409 253.033 410.813 249.436C407.216 245.84 402.338 243.82 397.252 243.82Z" fill="white"/>
</svg>
