<svg width="21" height="21" viewBox="0 0 21 21" fill="none" xmlns="http://www.w3.org/2000/svg">
<circle cx="10.125" cy="10.5" r="10.125" fill="#F05E2B"/>
<g clip-path="url(#clip0_404_1398)">
<path d="M15.2935 9.76166H10.8638V5.33197C10.8638 5.13617 10.786 4.94838 10.6475 4.80993C10.5091 4.67147 10.3213 4.59369 10.1255 4.59369C9.92968 4.59369 9.7419 4.67147 9.60344 4.80993C9.46499 4.94838 9.38721 5.13617 9.38721 5.33197V9.76166H4.95752C4.76172 9.76166 4.57393 9.83944 4.43548 9.97789C4.29702 10.1163 4.21924 10.3041 4.21924 10.4999C4.21924 10.6957 4.29702 10.8835 4.43548 11.022C4.57393 11.1604 4.76172 11.2382 4.95752 11.2382H9.38721V15.6679C9.38721 15.8637 9.46499 16.0515 9.60344 16.1899C9.7419 16.3284 9.92968 16.4062 10.1255 16.4062C10.3213 16.4062 10.5091 16.3284 10.6475 16.1899C10.786 16.0515 10.8638 15.8637 10.8638 15.6679V11.2382H15.2935C15.4893 11.2382 15.677 11.1604 15.8155 11.022C15.954 10.8835 16.0317 10.6957 16.0317 10.4999C16.0317 10.3041 15.954 10.1163 15.8155 9.97789C15.677 9.83944 15.4893 9.76166 15.2935 9.76166Z" fill="white"/>
</g>
<defs>
<clipPath id="clip0_404_1398">
<rect width="12.6562" height="12.6562" fill="white" transform="translate(3.79688 4.17188)"/>
</clipPath>
</defs>
</svg>
