<svg width="24" height="24" viewBox="0 0 24 24" fill="none" xmlns="http://www.w3.org/2000/svg">
<path d="M19.3343 16.2037V20.019C19.3343 20.2719 19.2338 20.5145 19.0549 20.6934C18.8761 20.8723 18.6335 20.9728 18.3805 20.9728H4.07343C3.82047 20.9728 3.57786 20.8723 3.39899 20.6934C3.22012 20.5145 3.11963 20.2719 3.11963 20.019V8.57331C3.11963 8.32035 3.22012 8.07774 3.39899 7.89887C3.57786 7.72 3.82047 7.61951 4.07343 7.61951H18.3805C18.6335 7.61951 18.8761 7.72 19.0549 7.89887C19.2338 8.07774 19.3343 8.32035 19.3343 8.57331V12.3885" stroke="#FEEFEA" stroke-width="1.90761" stroke-linecap="round" stroke-linejoin="round"/>
<path d="M19.3345 12.3886H16.4731C15.9463 12.3886 15.5193 12.8156 15.5193 13.3424V15.25C15.5193 15.7768 15.9463 16.2038 16.4731 16.2038H19.3345C19.8613 16.2038 20.2883 15.7768 20.2883 15.25V13.3424C20.2883 12.8156 19.8613 12.3886 19.3345 12.3886Z" stroke="#FEEFEA" stroke-width="1.90761" stroke-linecap="round" stroke-linejoin="round"/>
<path d="M5.98096 7.61954L13.7354 4.17631C13.9589 4.07631 14.2123 4.0661 14.4431 4.14777C14.6739 4.22945 14.8645 4.39675 14.9753 4.61506L16.4728 7.61954" stroke="#FEEFEA" stroke-width="1.90761" stroke-linecap="round" stroke-linejoin="round"/>
</svg>
