<svg width="24" height="24" viewBox="0 0 24 24" fill="none" xmlns="http://www.w3.org/2000/svg">
<path d="M11.7038 15.2771C14.8644 15.2771 17.4266 12.7149 17.4266 9.55428C17.4266 6.39365 14.8644 3.83145 11.7038 3.83145C8.54315 3.83145 5.98096 6.39365 5.98096 9.55428C5.98096 12.7149 8.54315 15.2771 11.7038 15.2771Z" stroke="#FEEFEA" stroke-width="1.90761" stroke-linecap="round" stroke-linejoin="round"/>
<path d="M7.40226 13.608C6.43901 13.9131 5.59757 14.5163 4.99929 15.3306C4.40102 16.1449 4.07683 17.1281 4.07349 18.1385C4.07349 18.8974 4.37496 19.6252 4.91157 20.1619C5.44819 20.6985 6.17601 21 6.9349 21H16.4729C17.2318 21 17.9596 20.6985 18.4963 20.1619C19.0329 19.6252 19.3344 18.8974 19.3344 18.1385C19.331 17.1281 19.0068 16.1449 18.4085 15.3306C17.8103 14.5163 16.9688 13.9131 16.0056 13.608" stroke="#FEEFEA" stroke-width="1.90761" stroke-linecap="round" stroke-linejoin="round"/>
</svg>
