<svg width="24" height="24" viewBox="0 0 24 24" fill="none" xmlns="http://www.w3.org/2000/svg">
<path d="M8.84245 12.3071H4.07343C3.82047 12.3071 3.57786 12.2066 3.39899 12.0277C3.22012 11.8488 3.11963 11.6062 3.11963 11.3533V4.67664C3.11963 4.42368 3.22012 4.18108 3.39899 4.0022C3.57786 3.82333 3.82047 3.72284 4.07343 3.72284H8.84245C9.09542 3.72284 9.33802 3.82333 9.5169 4.0022C9.69577 4.18108 9.79626 4.42368 9.79626 4.67664V11.3533C9.79626 11.6062 9.69577 11.8488 9.5169 12.0277C9.33802 12.2066 9.09542 12.3071 8.84245 12.3071ZM20.2881 7.53806V4.67664C20.2881 4.42368 20.1876 4.18108 20.0087 4.0022C19.8299 3.82333 19.5873 3.72284 19.3343 3.72284H14.5653C14.3123 3.72284 14.0697 3.82333 13.8908 4.0022C13.712 4.18108 13.6115 4.42368 13.6115 4.67664V7.53806C13.6115 7.79102 13.712 8.03362 13.8908 8.2125C14.0697 8.39137 14.3123 8.49186 14.5653 8.49186H19.3343C19.5873 8.49186 19.8299 8.39137 20.0087 8.2125C20.1876 8.03362 20.2881 7.79102 20.2881 7.53806ZM9.79626 19.9375V17.0761C9.79626 16.8231 9.69577 16.5805 9.5169 16.4017C9.33802 16.2228 9.09542 16.1223 8.84245 16.1223H4.07343C3.82047 16.1223 3.57786 16.2228 3.39899 16.4017C3.22012 16.5805 3.11963 16.8231 3.11963 17.0761V19.9375C3.11963 20.1905 3.22012 20.4331 3.39899 20.612C3.57786 20.7908 3.82047 20.8913 4.07343 20.8913H8.84245C9.09542 20.8913 9.33802 20.7908 9.5169 20.612C9.69577 20.4331 9.79626 20.1905 9.79626 19.9375ZM20.2881 19.9375V13.2609C20.2881 13.0079 20.1876 12.7653 20.0087 12.5864C19.8299 12.4076 19.5873 12.3071 19.3343 12.3071H14.5653C14.3123 12.3071 14.0697 12.4076 13.8908 12.5864C13.712 12.7653 13.6115 13.0079 13.6115 13.2609V19.9375C13.6115 20.1905 13.712 20.4331 13.8908 20.612C14.0697 20.7908 14.3123 20.8913 14.5653 20.8913H19.3343C19.5873 20.8913 19.8299 20.7908 20.0087 20.612C20.1876 20.4331 20.2881 20.1905 20.2881 19.9375Z" stroke="#FEEFEA" stroke-width="1.90761" stroke-linecap="round" stroke-linejoin="round"/>
</svg>
