<svg width="24" height="24" viewBox="0 0 24 24" fill="none" xmlns="http://www.w3.org/2000/svg">
<g clip-path="url(#clip0_81_4626)">
<path d="M4.07373 3.79785H13.6118C14.1119 3.79799 14.5181 4.20403 14.5181 4.7041V6.65918H19.0171C19.5405 6.65923 19.9122 6.79381 20.1919 6.98828C20.4724 7.18341 20.6637 7.44114 20.8228 7.69238C21.3894 8.58909 22.2882 10.0122 22.8345 10.9141C23.0091 11.204 23.102 11.5368 23.1021 11.876V16.1494C23.1021 16.6579 22.9286 17.1227 22.6108 17.46C22.2935 17.7968 21.829 18.0098 21.2417 18.0098H20.2407V18.0566C20.2407 19.6096 18.9802 20.8708 17.4272 20.8711C15.8741 20.8711 14.6128 19.6098 14.6128 18.0566V18.0098H10.7026V18.0566C10.7026 19.6097 9.44213 20.8709 7.88916 20.8711C6.336 20.8711 5.07471 19.6098 5.07471 18.0566V18.0098H4.07373C3.57365 18.0098 3.16762 17.6036 3.16748 17.1035V11.333H1.26025V9.52051H7.84131V11.333H4.97998V12.3818H12.7056V5.61035H3.16748V4.7041C3.16748 4.20394 3.57357 3.79785 4.07373 3.79785ZM7.88916 16.8652C7.23154 16.8652 6.69701 17.3991 6.69678 18.0566C6.69678 18.7144 7.2314 19.249 7.88916 19.249C8.54672 19.2488 9.08057 18.7143 9.08057 18.0566C9.08034 17.3992 8.54658 16.8655 7.88916 16.8652ZM17.4272 16.8652C16.7696 16.8652 16.2351 17.3991 16.2349 18.0566C16.2349 18.7144 16.7695 19.249 17.4272 19.249C18.0848 19.2488 18.6187 18.7142 18.6187 18.0566C18.6184 17.3992 18.0846 16.8655 17.4272 16.8652ZM18.0991 9.52051C18.4244 9.52051 18.724 9.69484 18.8853 9.97754L20.2056 12.2861H15.5669V9.52051H18.0991ZM7.84131 6.65918V8.47168H0.306152V6.65918H7.84131ZM21.2896 11.7725L21.2827 11.7617L19.6509 8.96777C19.4716 8.66054 19.142 8.47168 18.7866 8.47168H14.5181V14.1943H4.97998V16.1973H5.77783L5.79248 16.1816C6.30745 15.6057 7.05631 15.2432 7.88916 15.2432C8.72184 15.2433 9.46998 15.6058 9.98486 16.1816L9.99951 16.1973H15.3159L15.3306 16.1816C15.8455 15.6057 16.5944 15.2432 17.4272 15.2432C18.2599 15.2433 19.0081 15.6058 19.5229 16.1816L19.5376 16.1973H21.2896V11.7725Z" fill="#FEEFEA" stroke="#2C2C2C" stroke-width="0.0953804"/>
</g>
<defs>
<clipPath id="clip0_81_4626">
<rect width="22.8913" height="22.8913" fill="white" transform="translate(0.258301 0.888611)"/>
</clipPath>
</defs>
</svg>
