<svg width="24" height="24" viewBox="0 0 24 24" fill="none" xmlns="http://www.w3.org/2000/svg">
<path d="M20.7102 3.29001C20.4223 3.00443 20.0778 2.78219 19.699 2.63753C19.3201 2.49287 18.9152 2.429 18.5102 2.45001C17.6861 2.49572 16.9103 2.85324 16.3402 3.45001L7.4602 12.29C7.41446 12.3403 7.3773 12.3977 7.3502 12.46C7.31076 12.5164 7.27725 12.5767 7.2502 12.64L6.0002 16.72C5.95563 16.8723 5.94796 17.0331 5.97782 17.189C6.00768 17.3449 6.07422 17.4914 6.17194 17.6165C6.26965 17.7415 6.39573 17.8416 6.53975 17.9083C6.68378 17.9749 6.84161 18.0064 7.0002 18C7.09296 18.0146 7.18744 18.0146 7.2802 18L11.2802 16.83L11.4602 16.73C11.5225 16.7029 11.5799 16.6657 11.6302 16.62L20.5002 7.74001C21.097 7.16989 21.4545 6.39408 21.5002 5.57001C21.5393 5.15558 21.4889 4.7376 21.3527 4.34427C21.2164 3.95095 20.9973 3.59144 20.7102 3.29001Z" fill="#454545"/>
<path d="M21 22H3C2.73478 22 2.48043 21.8946 2.29289 21.7071C2.10536 21.5196 2 21.2652 2 21C2 20.7348 2.10536 20.4804 2.29289 20.2929C2.48043 20.1054 2.73478 20 3 20H21C21.2652 20 21.5196 20.1054 21.7071 20.2929C21.8946 20.4804 22 20.7348 22 21C22 21.2652 21.8946 21.5196 21.7071 21.7071C21.5196 21.8946 21.2652 22 21 22Z" fill="#454545"/>
</svg>
