<svg width="30" height="31" viewBox="0 0 30 31" fill="none" xmlns="http://www.w3.org/2000/svg">
<path fill-rule="evenodd" clip-rule="evenodd" d="M21.3596 23.3509C21.4451 23.0886 21.592 22.842 21.8005 22.6336C22.0268 22.4072 22.2982 22.2534 22.5858 22.172C26.3848 17.9085 26.2396 11.3684 22.1501 7.27894C17.91 3.03888 11.0356 3.03888 6.7955 7.27894C2.55544 11.519 2.55544 18.3935 6.7955 22.6335C10.7812 26.6192 17.0946 26.8583 21.3596 23.3509ZM23.1523 26.5445C17.4816 30.8029 9.39607 30.3523 4.2364 25.1926C-1.41701 19.5392 -1.41701 10.3732 4.2364 4.71984C9.88981 -0.933569 19.0558 -0.933569 24.7092 4.71984C29.9894 10 30.338 18.3443 25.755 24.029L29.4778 27.7518C30.1844 28.4584 30.1844 29.6042 29.4778 30.3109C28.7711 31.0175 27.6253 31.0175 26.9187 30.3109L23.1523 26.5445Z" fill="#444444"/>
</svg>
