<svg width="34" height="34" viewBox="0 0 34 34" fill="none" xmlns="http://www.w3.org/2000/svg">
<path d="M26.9194 13.5314L29.5082 16.1202C29.6359 16.2469 29.7373 16.3976 29.8065 16.5636C29.8757 16.7296 29.9113 16.9077 29.9113 17.0876C29.9113 17.2675 29.8757 17.4456 29.8065 17.6116C29.7373 17.7776 29.6359 17.9283 29.5082 18.055L26.9194 20.6438C26.6677 20.8976 26.5258 21.2401 26.5243 21.5975V25.2627C26.5243 25.6241 26.3808 25.9707 26.1252 26.2262C25.8697 26.4817 25.5231 26.6253 25.1618 26.6253H21.4966C21.1392 26.6268 20.7966 26.7687 20.5428 27.0204L17.954 29.6092C17.8274 29.7369 17.6767 29.8383 17.5106 29.9074C17.3446 29.9766 17.1665 30.0122 16.9866 30.0122C16.8068 30.0122 16.6287 29.9766 16.4626 29.9074C16.2966 29.8383 16.1459 29.7369 16.0192 29.6092L13.4305 27.0204C13.1767 26.7687 12.8341 26.6268 12.4767 26.6253H8.8115C8.45013 26.6253 8.10357 26.4817 7.84805 26.2262C7.59252 25.9707 7.44897 25.6241 7.44897 25.2627V21.5975C7.44747 21.2401 7.30556 20.8976 7.05384 20.6438L4.46504 18.055C4.33734 17.9283 4.23597 17.7776 4.1668 17.6116C4.09763 17.4456 4.06201 17.2675 4.06201 17.0876C4.06201 16.9077 4.09763 16.7296 4.1668 16.5636C4.23597 16.3976 4.33734 16.2469 4.46504 16.1202L7.05384 13.5314C7.30556 13.2776 7.44747 12.9351 7.44897 12.5776V8.91245C7.44897 8.55108 7.59252 8.20452 7.84805 7.949C8.10357 7.69348 8.45013 7.54992 8.8115 7.54992H12.4767C12.8341 7.54842 13.1767 7.40651 13.4305 7.15479L16.0192 4.566C16.1459 4.43829 16.2966 4.33692 16.4626 4.26775C16.6287 4.19858 16.8068 4.16296 16.9866 4.16296C17.1665 4.16296 17.3446 4.19858 17.5106 4.26775C17.6767 4.33692 17.8274 4.43829 17.954 4.566L20.5428 7.15479C20.7966 7.40651 21.1392 7.54842 21.4966 7.54992H25.1618C25.5231 7.54992 25.8697 7.69348 26.1252 7.949C26.3808 8.20452 26.5243 8.55108 26.5243 8.91245V12.5776C26.5258 12.9351 26.6677 13.2776 26.9194 13.5314ZM16.9866 13C16.1782 13 15.3879 13.2398 14.7157 13.6889C14.0435 14.138 13.5196 14.7764 13.2102 15.5233C12.9008 16.2703 12.8199 17.0921 12.9776 17.885C13.1353 18.678 13.5246 19.4063 14.0963 19.9779C14.6679 20.5496 15.3963 20.9389 16.1892 21.0966C16.9821 21.2543 17.804 21.1734 18.5509 20.864C19.2978 20.5546 19.9362 20.0307 20.3853 19.3585C20.8345 18.6863 21.0742 17.896 21.0742 17.0876C21.0742 16.0035 20.6436 14.9638 19.877 14.1972C19.1104 13.4307 18.0707 13 16.9866 13Z" stroke="black" stroke-width="2.04379" stroke-linecap="round" stroke-linejoin="round"/>
</svg>
