<svg width="24" height="39" viewBox="0 0 24 39" fill="none" xmlns="http://www.w3.org/2000/svg">
<g clip-path="url(#clip0_502_1460)">
<path d="M22.2365 0H1.76392C2.73393 1.63108 4.08167 3.01108 5.68707 4.01839L5.09591 5.30461C4.8057 5.93608 5.08218 6.68339 5.71364 6.97361C5.88413 7.05183 6.06237 7.08885 6.23852 7.08885C6.71504 7.08885 7.17063 6.81715 7.38265 6.35557L7.94993 5.12102C8.8364 5.44198 9.77118 5.66113 10.7415 5.76353V7.28768C10.7415 7.98275 11.3049 8.54616 12 8.54616C12.695 8.54616 13.2584 7.98276 13.2584 7.28768V5.76353C14.2288 5.66172 15.1636 5.44198 16.05 5.12102L16.6173 6.35557C16.8293 6.81686 17.2849 7.08885 17.7614 7.08885C17.9373 7.08885 18.1158 7.05213 18.2863 6.97361C18.9178 6.6834 19.1942 5.9361 18.904 5.30461L18.3129 4.01839C19.9183 3.01101 21.2666 1.63108 22.2366 0H22.2365Z" fill="white"/>
<path d="M12.6457 10.9551C12.5636 10.8405 12.3092 10.4727 11.9999 10.4727C11.6906 10.4727 11.4362 10.8402 11.3541 10.9551C10.885 11.6087 10.1243 12.6669 10.1243 13.7017C10.1243 15.9643 12.0002 15.8725 12.0002 15.8725C12.0002 15.8725 13.8761 15.9636 13.8761 13.7017C13.8758 12.6669 13.115 11.6087 12.6456 10.9551H12.6457Z" fill="white"/>
<path d="M22.7687 18.5541H1.23218C0.412891 18.5541 -0.119159 19.2098 0.049529 20.0114L3.63952 37.0644C3.8082 37.8666 4.61671 38.5223 5.436 38.5223H18.5649C19.3842 38.5223 20.1927 37.8666 20.3614 37.065L23.9514 20.012C24.1204 19.2098 23.5877 18.5541 22.7687 18.5541ZM18.953 35.6278C18.8127 36.2948 18.1406 36.8399 17.4593 36.8399H6.5416C5.86027 36.8399 5.1882 36.2947 5.04787 35.6278L3.05763 26.173C12.0003 27.925 13.1728 22.8455 21.2097 24.9112L18.953 35.6278Z" fill="white"/>
</g>
<defs>
<clipPath id="clip0_502_1460">
<rect width="24" height="38.5223" fill="white"/>
</clipPath>
</defs>
</svg>
