<?xml version="1.0" encoding="UTF-8"?>
<svg id="Layer_1" data-name="Layer 1" xmlns="http://www.w3.org/2000/svg" viewBox="0 0 500 500">
  <defs>
    <style>
      .cls-1 {
        fill: #dfa41c;
      }

      .cls-2 {
        fill: #224c4b;
      }
    </style>
  </defs>
  <rect class="cls-2" width="500" height="500"/>
  <g>
    <path class="cls-1" d="M190.38,240.03h8.37v-37.12h-8.37c-8.51,0-15.83-2.8-21.96-8.4-6.12-5.6-9.85-12.51-11.17-20.76-1.6-13.04,1.72-24.35,9.97-33.94,4.26-4.52,9.18-8.11,14.76-10.76,5.6-2.65,11.46-3.99,17.58-3.99h13.59v-37.14h-13.59c-11.72,0-22.77,2.39-33.15,7.2-10.38,4.78-19.42,11.58-27.15,20.35-7.73,8.51-13.15,18.3-16.36,29.35-3.2,11.05-3.99,22.43-2.39,34.13,1.32,8.78,4.04,16.91,8.18,24.35,4.11,7.46,9.26,13.92,15.38,19.37,6.12,5.45,13.18,9.71,21.14,12.77,7.99,3.06,16.38,4.59,25.16,4.59Z"/>
    <path class="cls-1" d="M376.5,159.55c-2.53-5.85-5.99-10.98-10.38-15.37s-9.52-7.92-15.38-10.58c-5.85-2.65-12.11-3.99-18.75-3.99h-8.39c-6.65,0-12.91,1.26-18.77,3.79-5.85,2.53-10.98,5.99-15.37,10.38-3.79,3.79-6.89,8.18-9.28,13.16-.38.79-.74,1.59-1.09,2.41-.46,1.08-.87,2.17-1.23,3.28-.49,1.42-.9,2.86-1.25,4.33h-19.17v-45.52h39.54v-33.52h-76.66v265.89c0,3.1-.62,6.02-1.88,8.74-.57,1.26-1.28,2.46-2.11,3.63-.78,1.09-1.63,2.08-2.57,2.95-2.28,2.15-5.02,3.7-8.23,4.65-1.1.32-2.2.56-3.28.71-1.12.16-2.24.24-3.33.21-2.23-.02-4.42-.4-6.56-1.14-4.26-1.45-7.71-4.04-10.39-7.77-.79-1.34-1.53-2.53-2.17-3.59-.67-1.07-1.27-2.01-1.81-2.8l-1.58-2.39-3.67,2.48-6.66,4.5-20.43,13.78c6.41,10.09,13.65,18.34,21.77,24.73,6.58,5.2,14.79,8.28,24.62,9.25,2.28.23,4.65.34,7.11.34,8,0,15.5-1.53,22.56-4.6,4.88-2.12,9.35-4.74,13.4-7.88,1.8-1.4,3.52-2.88,5.16-4.49,5.34-5.19,9.52-11.38,12.58-18.58,2.44-5.71,3.9-11.69,4.39-17.91.13-1.59.2-3.2.2-4.83v-153.32h17.86v156h37.13v-99.48c3.82,2.76,7.34,5.87,10.51,9.24,2.12,2.25,4.09,4.62,5.89,7.1,9.21,12.58,14.34,27.92,14.34,43.91v39.22h37.13v-178.18c0-6.65-1.27-12.91-3.79-18.77ZM359.84,163.96c-9.66,8.49-13.58,19.33-13.59,31.98-.01,12.68-.17,4.64-.6,17.31-.49,14.96-9.96,27.14-24.02,31.21-.75.22-1.52.38-2.29.51-2.16.37-4.47.51-6.98.87v-6.62c0-17.75-.04-16.62.04-35.28,0-.33,0-.66.01-.98.04-3.84.24-7.71.87-11.48.1-.57.2-1.14.31-1.69.74-3.76,1.82-7.25,3.32-10.43,1.55-3.27,3.54-6.2,6.05-8.73l.05-.05c.59-.59,1.22-1.17,1.88-1.73,1.5-1.26,3.17-2.39,5-3.39,1.67-.92,3.48-1.71,5.46-2.39,8.17-2.82,16.42-2.36,25.26-.47-.37.67-.5,1.1-.79,1.35Z"/>
  </g>
</svg>